<?xml version="1.0" encoding="UTF-8"?>
<svg id="Ebene_1" xmlns="http://www.w3.org/2000/svg" version="1.1" viewBox="0 0 77.9 141.7">
  <!-- Generator: Adobe Illustrator 29.0.0, SVG Export Plug-In . SVG Version: 2.1.0 Build 186)  -->
  <defs>
    <style>
      .st0 {
        fill: #00c3ff;
      }

      .st1 {
        fill: #fff;
      }
    </style>
  </defs>
  <path class="st1" d="M-780.4,832.7h0c-13.7-10.3-32.6-11.2-51.7,12.4l-178,222.1-66.2-75c-12.6-11.6-31.8-12.1-45-1.2h0c-13.2,10.9-16.2,29.9-7.2,44.4l79.2,126.5c.8,1.2,1.7,2.3,2.6,3.4,19,22.9,53,26.1,75.9,7.1,5.2-4.4,9.4-9.5,12.6-15.1l180.2-271.7c15.9-22.5,14.5-41.3-2.5-53.1Z"/>
  <path class="st0" d="M24.4,0h53c.4,0,.6.4.4.7l-35.6,61.8c-.2.3,0,.7.4.7l30.4.7c.4,0,.6.5.4.8L4.7,141.6c-.4.4-1,0-.8-.5l19.3-58.9c.1-.3-.1-.6-.5-.7l-22.2-.6c-.3,0-.6-.3-.5-.6L23.9.4c0-.2.3-.4.5-.4Z"/>
</svg>