<?xml version="1.0" encoding="UTF-8"?><svg id="Ebene_1" xmlns="http://www.w3.org/2000/svg" viewBox="0 0 1211.45 1184.9"><path d="M353.22,832.66h0c-13.68-10.28-32.56-11.21-51.67,12.38l-177.99,222.1-66.23-74.96c-12.59-11.59-31.8-12.08-44.97-1.16h0c-13.17,10.92-16.23,29.9-7.17,44.41l79.23,126.54c.82,1.17,1.69,2.33,2.62,3.45,19,22.9,52.96,26.06,75.86,7.07,5.25-4.35,9.44-9.49,12.59-15.1l180.24-271.65c15.89-22.45,14.49-41.33-2.5-53.07Z" style="fill:#fff;"/><path d="M1157.97.01h52.99c.38-.01.62.4.43.73l-35.63,61.8c-.19.33.04.74.42.75l30.45.67c.42,0,.64.51.36.83l-68.69,76.77c-.36.4-1.01.03-.84-.49l19.26-58.86c.1-.32-.13-.64-.46-.65l-22.18-.56c-.33,0-.56-.33-.46-.64L1157.49.37c.06-.21.26-.35.48-.35Z" style="fill:#ffed3b;"/></svg>